<svg viewBox="0 0 800 800" xmlns="http://www.w3.org/2000/svg"><path d="M399.99999999999994,561.3507854012844 L399.99999999999994,-82.9802579619842 M121.46105003231537,721.9868386413228 L120.84069602347864,77.29604145079043 M399.99999999999994,561.3507854012844 L121.46105003231537,721.9868386413228 M399.99999999999994,-82.9802579619842 L120.84069602347864,77.29604145079043 M678.5389499676845,721.9868386413228 L679.1593039765213,77.29604145079043 M678.5389499676845,721.9868386413228 L399.99999999999994,561.3507854012844 M679.1593039765213,77.29604145079043 L399.99999999999994,-82.9802579619842 M400,882.9802579619842 L399.99999999999994,237.92970162033748 M121.46105003231537,721.9868386413228 L400,882.9802579619842 M120.84069602347864,77.29604145079043 L399.99999999999994,237.92970162033748 M400,882.9802579619842 L678.5389499676845,721.9868386413228 M302.4734405159555,778.2938240125741 L328.6411814180898,790.1383635136004 M328.6411814180898,790.1383635136004 L358.9617829817601,798.0217173642958 M358.9617829817601,798.0217173642958 L391.671057063882,801.4843920546738 M391.671057063882,801.4843920546738 L424.86516757232596,800.3245116202485 M424.86516757232596,800.3245116202485 L456.6118989982778,794.6096986093006 M456.6118989982778,794.6096986093006 L485.06370266435823,784.6731020929024 M485.06370266435823,784.6731020929024 L508.56561071922687,771.0937844659486 M508.56561071922687,771.0937844659486 L525.7517830324949,754.6627171136937 M525.7517830324949,754.6627171136937 L535.6248744259105,736.3364063581784 M535.6248744259105,736.3364063581784 L537.6136423563046,717.1809206174166 M537.6136423563046,717.1809206174166 L531.6055902882204,698.3097277076282 M531.6055902882204,698.3097277076282 L517.9527865208782,680.8189092352515 M517.9527865208782,680.8189092352515 L497.45073498064096,665.7236305675223 M497.45073498064096,665.7236305675223 L471.29167931391834,653.8994353952629 M471.29167931391834,653.8994353952629 L440.99514378714986,646.031765234957 M440.99514378714986,646.031765234957 L408.31980329797955,642.5765206522823 M408.31980329797955,642.5765206522823 L375.16172017150154,643.7338754588211 M375.16172017150154,643.7338754588211 L343.4448564602134,649.4367856942604 M343.4448564602134,649.4367856942604 L315.00991852151327,659.3548290831034 M315.00991852151327,659.3548290831034 L291.50801046131545,672.9131935212249 M291.50801046131545,672.9131935212249 L274.30497241461256,689.3257077458659 M274.30497241461256,689.3257077458659 L264.4020133103127,707.6401157373626 M264.4020133103127,707.6401157373626 L262.3772180083013,726.7930758511594 M262.3772180083013,726.7930758511594 L268.3513364914116,745.6716988614626 M268.3513364914116,745.6716988614626 L281.9800742205673,763.1782010186539 M281.9800742205673,763.1782010186539 L302.4734405159555,778.2938240125741 M399.99999999999994,237.92970162033748 L679.1593039765213,77.29604145079043 M302.25614745187914,133.47711158974118 L281.71714863182365,118.39528100875157 M281.71714863182365,118.39528100875157 L268.058084252755,100.92792507077604 M268.058084252755,100.92792507077604 L262.07069827045785,82.09152702010937 M262.07069827045785,82.09152702010937 L264.1000433424865,62.98141664721129 M264.1000433424865,62.98141664721129 L274.0250913466609,44.70799289106367 M274.0250913466609,44.70799289106367 L291.26646230538984,28.332215568537436 M291.26646230538984,28.332215568537436 L314.82071312982623,14.80420569395244 M314.82071312982623,14.80420569395244 L343.31896173604133,4.908370466721408 M343.31896173604133,4.908370466721408 L375.1064310387604,-0.7817686289988615 M375.1064310387604,-0.7817686289988615 L408.3383227374728,-1.9365315246468526 M408.3383227374728,-1.9365315246468526 L441.08639898065985,1.5109751154999458 M441.08639898065985,1.5109751154999458 L471.45038324845007,9.361027173220691 M471.45038324845007,9.361027173220691 L497.66768992021014,21.15874795690786 M497.66768992021014,21.15874795690786 L518.2154127152818,36.22023451487598 M518.2154127152818,36.22023451487598 L531.8986504503191,53.671907001762975 M531.8986504503191,53.671907001762975 L537.9201213377418,72.50087506264447 M537.9201213377418,72.50087506264447 L535.9269642943082,91.61351102486827 M535.9269642943082,91.61351102486827 L526.0319171902107,109.89883736765091 M526.0319171902107,109.89883736765091 L508.807487174362,126.29316754130832 M508.807487174362,126.29316754130832 L485.2532363553024,139.84213029248906 M485.2532363553024,139.84213029248906 L456.7380468123158,149.7565183708148 M456.7380468123158,149.7565183708148 L424.92057660570646,155.4585600646857 M424.92057660570646,155.4585600646857 L391.65249686795795,156.6158485505876 M391.65249686795795,156.6158485505876 L358.87033571159634,153.1609119134491 M358.87033571159634,153.1609119134491 L328.4821780891336,145.2951763990378 M328.4821780891336,145.2951763990378 L302.25614745187914,133.47711158974118 M302.4734405159555,778.2938240125741 L302.25614745187914,133.47711158974118" stroke="black"  stroke-width="4"  fill="red"/></svg>