<svg viewBox="0 0 800 800" xmlns="http://www.w3.org/2000/svg"><path d="M54.679956638329145,572.4993720665132 L54.147337761796564,410.6664779299402 M54.679956638329145,572.4993720665132 L745.4613789172306,679.5813813374577 M54.147337761796564,410.6664779299402 L745.8526622382035,517.6056818304892 M745.4613789172306,679.5813813374577 L745.8526622382035,517.6056818304892 M162.79259068750838,494.9305530454502 L163.2088322291692,492.0941318789282 M163.2088322291692,492.0941318789282 L164.46518302707085,489.4315799919483 M164.46518302707085,489.4315799919483 L166.54268702591855,486.98326852437316 M166.54268702591855,486.98326852437316 L169.40988348625729,484.78635663214004 M169.40988348625729,484.78635663214004 L174.38458568865002,482.30517464057834 M174.38458568865002,482.30517464057834 L181.39754201615239,480.2009746509828 M181.39754201615239,480.2009746509828 L192.67369733902075,478.6421164388406 M192.67369733902075,478.6421164388406 L207.19669488686705,478.6902615862276 M207.19669488686705,478.6902615862276 L222.59313802380822,480.6390637041661 M222.59313802380822,480.6390637041661 L237.68650524112707,484.33980104334546 M237.68650524112707,484.33980104334546 L251.32315834702692,489.5098093454672 M251.32315834702692,489.5098093454672 L262.4608186229952,495.7539412891891 M262.4608186229952,495.7539412891891 L269.0580244626264,501.27318121162295 M269.0580244626264,501.27318121162295 L272.3562275948454,505.503653073407 M272.3562275948454,505.503653073407 L273.94515125873556,508.99213690216584 M273.94515125873556,508.99213690216584 L274.3199372319474,510.61766502287145 M274.3199372319474,510.61766502287145 L274.4466037757496,512.2117670745847 M274.4466037757496,512.2117670745847 L274.02747018792394,515.0484237170326 M274.02747018792394,515.0484237170326 L272.7679162105003,517.7108419495729 M272.7679162105003,517.7108419495729 L270.6871080334511,520.1586554012207 M270.6871080334511,520.1586554012207 L267.8166738334524,522.3547542663046 M267.8166738334524,522.3547542663046 L262.83813760836694,524.8344189434908 M262.83813760836694,524.8344189434908 L255.82196390292384,526.9365324034619 M255.82196390292384,526.9365324034619 L244.5440416616093,528.4924217630523 M244.5440416616093,528.4924217630523 L230.0228805607511,528.4415471346633 M230.0228805607511,528.4415471346633 L214.63175596739532,526.4914127193313 M214.63175596739532,526.4914127193313 L199.54561697201945,522.7911280967342 M199.54561697201945,522.7911280967342 L185.9159013298571,517.6232541964368 M185.9159013298571,517.6232541964368 L174.782855203939,511.38227143847143 M174.782855203939,511.38227143847143 L168.1866695666726,505.865690780442 M168.1866695666726,505.865690780442 L164.8874727952405,501.6369297434851 M164.8874727952405,501.6369297434851 L163.29663687504103,498.14952371129635 M163.29663687504103,498.14952371129635 L162.92063548037544,496.52438021405504 M162.92063548037544,496.52438021405504 L162.79259068750838,494.9305530454502 M559.4780729988294,281.86137147877287 L559.6194220835969,120.41861866254226 M559.4780729988294,281.86137147877287 L54.679956638329145,572.4993720665132 M559.6194220835969,120.41861866254226 L54.147337761796564,410.6664779299402 M520.0610888611436,210.4449546980527 L519.473279371357,205.14765100325963 M519.473279371357,205.14765100325963 L517.7376563777805,200.8370088834061 M517.7376563777805,200.8370088834061 L514.9548978420464,197.76364230543206 M514.9548978420464,197.76364230543206 L511.2864717135426,196.10641181828822 M511.2864717135426,196.10641181828822 L506.94543822676405,195.96193134014362 M506.94543822676405,195.96193134014362 L502.1840821604593,197.33883769759169 M502.1840821604593,197.33883769759169 L497.27914063099865,200.15736642928493 M497.27914063099865,200.15736642928493 L492.5158539777351,204.25379676624772 M492.5158539777351,204.25379676624772 L488.1712655150902,209.38999434980548 M488.1712655150902,209.38999434980548 L484.4980785570408,215.26731281984453 M484.4980785570408,215.26731281984453 L481.7099509211476,221.54389813161612 M481.7099509211476,221.54389813161612 L479.9690188186321,227.85468686071587 M479.9690188186321,227.85468686071587 L479.37643916785834,233.83266437960475 M479.37643916785834,233.83266437960475 L479.9665337204342,239.13025415234512 M479.9665337204342,239.13025415234512 L481.704811550831,243.4395568253883 M481.704811550831,243.4395568253883 L484.4900283002127,246.5102476772175 M484.4900283002127,246.5102476772175 L488.1601025378292,248.1640902841384 M488.1601025378292,248.1640902841384 L492.50159645270844,248.30527105887208 M492.50159645270844,248.30527105887208 L497.262170151305,246.92584953436395 M497.262170151305,246.92584953436395 L502.1652239297675,244.10621954331117 M502.1652239297675,244.10621954331117 L506.9259499177073,240.0103541446835 M506.9259499177073,240.0103541446835 L511.26793322108307,234.87620509066818 M511.26793322108307,234.87620509066818 L514.93901698421,229.00200901729588 M514.93901698421,229.00200901729588 L517.7260252206314,222.72888045728274 M517.7260252206314,222.72888045728274 L519.4671284852797,216.42107978080733 M519.4671284852797,216.42107978080733 L520.0610888611436,210.4449546980527 M135.20432016432437,431.6811812138972 L134.59424804663882,426.37599049867157 M134.59424804663882,426.37599049867157 L132.82897189883568,422.06290709592724 M132.82897189883568,422.06290709592724 L130.01084671991885,418.9927133477277 M130.01084671991885,418.9927133477277 L126.30344803432337,417.3440561797868 M126.30344803432337,417.3440561797868 L121.92210022444556,417.21305330781246 M121.92210022444556,417.21305330781246 L117.1213770629227,418.6075911174256 M117.1213770629227,418.6075911174256 L112.18034885291485,421.44685635440504 M112.18034885291485,421.44685635440504 L107.38635570401902,425.5659230337521 M107.38635570401902,425.5659230337521 L103.01818405364662,430.7253655741278 M103.01818405364662,430.7253655741278 L99.32996464126063,436.6251537536359 M99.32996464126063,436.6251537536359 L96.53623037719154,442.9221255689772 M96.53623037719154,442.9221255689772 L94.79938908686165,449.2500622240755 M94.79938908686165,449.2500622240755 L94.22040293866638,455.24092585745615 M94.22040293866638,455.24092585745615 L94.83279049025094,460.54639695840405 M94.83279049025094,460.54639695840405 L96.60077379338588,464.8581122121525 M96.60077379338588,464.8581122121525 L99.42133557287366,467.9256333474 M99.42133557287366,467.9256333474 L103.13039278656089,469.57087871788485 M103.13039278656089,469.57087871788485 L107.5122411656393,469.6985364625682 M107.5122411656393,469.6985364625682 L112.3121414606432,468.3014850047935 M112.3121414606432,468.3014850047935 L117.25125406516383,465.461118437723 M117.25125406516383,465.461118437723 L122.04267771981608,461.3426150525549 M122.04267771981608,461.3426150525549 L126.40817242348413,456.18526638524423 M126.40817242348413,456.18526638524423 L130.094271507003,450.28862450258856 M130.094271507003,450.28862450258856 L132.88692773939908,443.9951063759779 M132.88692773939908,443.9951063759779 L134.62392957204452,437.670186581573 M134.62392957204452,437.670186581573 L135.20432016432437,431.6811812138972 M745.4613789172306,679.5813813374577 L559.4780729988294,281.86137147877287 M467.98384277026844,414.7468038621943 L467.00905614513204,418.71028252649637 M467.00905614513204,418.71028252649637 L467.7081130491108,422.69372435228627 M467.7081130491108,422.69372435228627 L470.0406961038751,426.46557885271784 M470.0406961038751,426.46557885271784 L473.87150637103315,429.80652538825353 M473.87150637103315,429.80652538825353 L478.9780325200874,432.5222313157019 M478.9780325200874,432.5222313157019 L485.06347448599894,434.45468037948575 M485.06347448599894,434.45468037948575 L491.77398922196153,435.4914081458982 M491.77398922196153,435.4914081458982 L498.7193183407384,435.57207142482423 M498.7193183407384,435.57207142482423 L505.49550025328523,434.6919709995129 M505.49550025328523,434.6919709995129 L511.7084258646821,432.90234191615286 M511.7084258646821,432.90234191615286 L516.9968301409453,430.3073355789565 M516.9968301409453,430.3073355789565 L521.053325391228,427.0579505094181 M521.053325391228,427.0579505094181 L523.6422611185587,423.34320222305723 M523.6422611185587,423.34320222305723 L524.6134026226471,419.37911796462834 M524.6134026226471,419.37911796462834 L523.9106394654852,415.39611428387866 M523.9106394654852,415.39611428387866 L521.5751193028134,411.6256432596736 M521.5751193028134,411.6256432596736 L517.7428320723932,408.2867013296127 M517.7428320723932,408.2867013296127 L512.636617635374,405.5731675738327 M512.636617635374,405.5731675738327 L506.55319482777367,403.64256629073657 M506.55319482777367,403.64256629073657 L499.8459511730517,402.60693134656117 M499.8459511730517,402.60693134656117 L492.90441043754237,402.52635274864974 M492.90441043754237,402.52635274864974 L486.131653738628,403.40551437455684 M486.131653738628,403.40551437455684 L479.92100121864,405.1934051142668 M479.92100121864,405.1934051142668 L474.6331971649346,407.786254069124 M474.6331971649346,407.786254069124 L470.5755043763837,411.03357060898674 M470.5755043763837,411.03357060898674 L467.98384277026844,414.7468038621943 M301.3224672207642,551.6002826094356 L307.78277553607484,550.0990077141419 M307.78277553607484,550.0990077141419 L313.43525087298013,547.7488122805039 M313.43525087298013,547.7488122805039 L317.9512954380773,544.6864618186867 M317.9512954380773,544.6864618186867 L321.0685015343143,541.0901103179622 M321.0685015343143,541.0901103179622 L322.60591138041553,537.1689135114964 M322.60591138041553,537.1689135114964 L322.4744579474405,533.1508430071233 M322.4744579474405,533.1508430071233 L320.6821121337945,529.2694072366832 M320.6821121337945,529.2694072366832 L317.3333183014392,525.7500798398897 M317.3333183014392,525.7500798398897 L312.62286959008736,522.7972363071771 M312.62286959008736,522.7972363071771 L306.82455231193273,520.5822989213684 M306.82455231193273,520.5822989213684 L300.2752120034909,519.2338224188609 M300.2752120034909,519.2338224188609 L293.35521471614186,518.8300500773261 M293.35521471614186,518.8300500773261 L286.4664250273785,519.3944147127975 M286.4664250273785,519.3944147127975 L280.0088671646946,520.8941658140398 M280.0088671646946,520.8941658140398 L274.3575980020243,523.2422775316118 M274.3575980020243,523.2422775316118 L269.8409550519239,526.3024645547869 M269.8409550519239,526.3024645547869 L266.72145936493064,529.8970612177054 M266.72145936493064,529.8970612177054 L265.1806240550384,533.8173137991698 M265.1806240550384,533.8173137991698 L265.30828547246244,537.8354694782506 M265.30828547246244,537.8354694782506 L267.0973343338312,541.7180076039523 M267.0973343338312,541.7180076039523 L270.44408651328075,545.239193470147 M270.44408651328075,545.239193470147 L275.15422923633935,548.194221748595 M275.15422923633935,548.194221748595 L280.95403642019517,550.4111753466084 M280.95403642019517,550.4111753466084 L287.5063113442974,551.7610433258872 M287.5063113442974,551.7610433258872 L294.43002833512173,552.1652531331137 M294.43002833512173,552.1652531331137 L301.3224672207642,551.6002826094356 M590.3098035892056,566.4258085295801 L584.8242756025359,563.9448304661012 M584.8242756025359,563.9448304661012 L578.4727363808195,562.2939035037139 M578.4727363808195,562.2939035037139 L571.6241172321095,561.5688427637185 M571.6241172321095,561.5688427637185 L564.676106159476,561.8117070496664 M564.676106159476,561.8117070496664 L558.0321938000276,563.0084152916413 M558.0321938000276,563.0084152916413 L552.0782152400448,565.0895159170176 M552.0782152400448,565.0895159170176 L547.1600590617613,567.9342381003364 M547.1600590617613,567.9342381003364 L543.5635502349431,571.3774452684984 M543.5635502349431,571.3774452684984 L541.4978409250781,575.2191880696353 M541.4978409250781,575.2191880696353 L541.0832677630067,579.2363153715578 M541.0832677630067,579.2363153715578 L542.3442287266098,583.195377408879 M542.3442287266098,583.195377408879 L545.2077671016223,586.8662355388901 M545.2077671016223,586.8662355388901 L549.5076629172942,590.035401191492 M549.5076629172942,590.035401191492 L554.9941058010647,592.5185150570487 M554.9941058010647,592.5185150570487 L561.3481719041442,594.171088538439 M561.3481719041442,594.171088538439 L568.2003510338453,594.896929306909 M568.2003510338453,594.896929306909 L575.15213964873,594.6537998763647 M575.15213964873,594.6537998763647 L581.7991817117044,593.455842047155 M581.7991817117044,593.455842047155 L587.7549251705753,591.3727936670396 M587.7549251705753,591.3727936670396 L592.6730771153494,588.5258717604906 M592.6730771153494,588.5258717604906 L596.2678135461988,585.0807168323572 M596.2678135461988,585.0807168323572 L598.3303883429797,581.237724447081 M598.3303883429797,581.237724447081 L598.7411829425251,577.2203319980515 M598.7411829425251,577.2203319980515 L597.4766650004775,573.2620499924265 M597.4766650004775,573.2620499924265 L594.6106060815197,569.5928383797752 M594.6106060815197,569.5928383797752 L590.3098035892056,566.4258085295801 M745.8526622382035,517.6056818304892 L559.6194220835969,120.41861866254226 M562.7434479318586,208.90476177168836 L693.0557249012898,487.204750575563 M522.4262991629371,232.09005807162117 L562.7434479318586,208.90476177168836 M522.4262991629371,232.09005807162117 L510.7691825399918,225.39520687497034 M510.7691825399918,225.39520687497034 L455.0724841525722,233.97217366984663 M455.0724841525722,233.97217366984663 L440.13946265217373,266.0034142792624 M440.13946265217373,266.0034142792624 L451.7965834751444,272.7072876080466 M320.3743476452008,348.2846429309937 L451.7965834751444,272.7072876080466 M320.3743476452008,348.2846429309937 L308.7172471266331,341.563965759139 M308.7172471266331,341.563965759139 L252.8844101593223,350.17402267821143 M252.8844101593223,350.17402267821143 L237.81499005734855,382.32886706520435 M237.81499005734855,382.32886706520435 L249.47206443077542,389.0586186426741 M208.91349819142147,412.38274756730567 L249.47206443077542,389.0586186426741 M693.0557249012898,487.204750575563 L208.91349819142147,412.38274756730567 M579.3239504533277,204.84272205204374 L603.6771064576259,234.65536010823092 M579.3239504533277,204.84272205204374 L579.2719634120581,254.90825076267816 M603.5602880558318,328.92514294767517 L579.2719634120581,254.90825076267816 M628.7273880459612,359.83592624663925 L603.5602880558318,328.92514294767517 M628.7978464691569,311.1425872157499 L628.7273880459612,359.83592624663925 M603.6771064576259,234.65536010823092 L628.7978464691569,311.1425872157499 M274.4466037757496,512.2117670745847 L221.97865337111884,481.86699912474546 M209.01901731235031,464.75512880027003 L216.0810423614798,470.41212854388056 M216.0810423614798,470.41212854388056 L219.56647895297598,474.64848882994255 M219.56647895297598,474.64848882994255 L221.31453137291874,478.15302251962936 M221.31453137291874,478.15302251962936 L221.81065524815938,480.0300772392329 M221.81065524815938,480.0300772392329 L221.97865337111884,481.86699912474546 M213.79547410957838,477.13426849836543 L213.23816355723085,472.0319820947651 M213.23816355723085,472.0319820947651 L211.6172398054779,467.83083739606366 M211.6172398054779,467.83083739606366 L209.01901731235031,464.75512880027003 M213.79547410957838,477.13426849836543 L135.20432016432437,431.6811812138972 M209.07990254778292,494.97434152177243 L211.65927839808572,488.91974570355353 M211.65927839808572,488.91974570355353 L213.25961477314425,482.8654247029492 M213.25961477314425,482.8654247029492 L213.79547410957838,477.13426849836543 M221.97865337111884,481.86699912474546 L221.61033710945904,484.5358564754146 M221.61033710945904,484.5358564754146 L220.49993152627815,487.05326991436937 M220.49993152627815,487.05326991436937 L218.66237119533926,489.38555305867436 M218.66237119533926,489.38555305867436 L216.12230596986745,491.50148680214227 M216.12230596986745,491.50148680214227 L212.9138194213163,493.3727561301477 M212.9138194213163,493.3727561301477 L209.07990254778292,494.97434152177243 M566.619706067319,237.1752474451618 L566.0235830694947,243.1529322721953 M566.0235830694947,243.1529322721953 L564.2804439307106,249.46280443804426 M564.2804439307106,249.46280443804426 L561.4916447885653,255.7383959922484 M561.4916447885653,255.7383959922484 L557.8191190393272,261.6153036784702 M557.8191190393272,261.6153036784702 L553.4761263267131,266.7522556202307 M553.4761263267131,266.7522556202307 L548.714882056365,270.8508524678606 M548.714882056365,270.8508524678606 L543.8118311715667,273.6729838667755 M543.8118311715667,273.6729838667755 L539.0517813747567,275.0545313732898 M539.0517813747567,275.0545313732898 L534.7113019944205,274.91497748101267 M534.7113019944205,274.91497748101267 L531.0426740765736,273.2621679129883 M531.0426740765736,273.2621679129883 L528.259251523193,270.1918559685074 M528.259251523193,270.1918559685074 L526.5230116225433,265.88225581786423 M526.5230116225433,265.88225581786423 L525.9350803930494,260.5837093089782 M525.9350803930494,260.5837093089782 L526.5298230702465,254.6041713380713 M526.5298230702465,254.6041713380713 L528.2727921611402,248.2913091897977 M528.2727921611402,248.2913091897977 L531.0627122690278,242.01225815418465 M531.0627122690278,242.01225815418465 L534.7373428795332,236.1322251888273 M534.7373428795332,236.1322251888273 L539.0829421268056,230.99322234798555 M539.0829421268056,230.99322234798555 L543.846747843546,226.89405921572603 M543.846747843546,226.89405921572603 L548.7516864759964,224.0730290893698 M548.7516864759964,224.0730290893698 L553.5125178535209,222.6939981195843 M553.5125178535209,222.6939981195843 L557.8525354265662,222.83685409980723 M557.8525354265662,222.83685409980723 L561.5195135681491,224.49305443370474 M561.5195135681491,224.49305443370474 L564.3004763439845,227.56604482461967 M564.3004763439845,227.56604482461967 L566.0340602985805,231.87698633211437 M566.0340602985805,231.87698633211437 L566.619706067319,237.1752474451618 M566.619706067319,237.1752474451618 L520.0610888611436,210.4449546980527 M467.98384277026844,414.7468038621943 L467.9871223984139,387.83976051194793 M467.9871223984139,387.83976051194793 L470.57935890653437,384.12735564074853 M470.57935890653437,384.12735564074853 L474.63795186318134,380.88076362485555 M474.63795186318134,380.88076362485555 L479.9269289913035,378.2884932281975 M479.9269289913035,378.2884932281975 L486.1389593387338,376.50100146018394 M486.1389593387338,376.50100146018394 L492.91321863044993,375.6220360297025 M492.91321863044993,375.6220360297025 L499.8562995275959,375.70259664530056 M499.8562995275959,375.70259664530056 L506.56503155047113,376.73800047636576 M506.56503155047113,376.73800047636576 L512.6498045578309,378.66817094596666 M512.6498045578309,378.66817094596666 L517.7571526312227,381.3810992231741 M517.7571526312227,381.3810992231741 L521.5902910656293,384.7192961996784 M521.5902910656293,384.7192961996784 L523.9263304760755,388.48892608992105 M523.9263304760755,388.48892608992105 L524.6292506352049,392.4710413372402 M524.6292506352049,392.4710413372402 L523.6578946247082,396.43424149790064 M523.6578946247082,396.43424149790064 L521.0683852069092,400.14816139978774 M521.0683852069092,400.14816139978774 L517.0109903210798,403.3968219433145 M517.0109903210798,403.3968219433145 L511.7214127030546,405.99124971910175 M511.7214127030546,405.99124971910175 L505.50710825542075,407.7804798301709 M505.50710825542075,407.7804798301709 L498.7294222309343,408.6603840582589 M498.7294222309343,408.6603840582589 L491.78255127000506,408.5797387610345 M491.78255127000506,408.5797387610345 L485.0705467117765,407.54324210935334 M485.0705467117765,407.54324210935334 L478.9837536482429,405.61122386191596 M478.9837536482429,405.61122386191596 L473.87609372533313,402.8961234148472 M473.87609372533313,402.8961234148472 L470.04443291075853,399.55592183448096 M470.04443291075853,399.55592183448096 L467.71133191060864,395.7849084703249 M467.71133191060864,395.7849084703249 L467.0121196504849,391.80235507882827 M467.0121196504849,391.80235507882827 L467.9871223984139,387.83976051194793 M301.3224672207642,551.6002826094356 L301.2886852510319,524.6627793057994 M301.2886852510319,524.6627793057994 L294.39471301173796,525.2276243668424 M294.39471301173796,525.2276243668424 L287.4694562710329,524.8235043219854 M287.4694562710329,524.8235043219854 L280.9157248316791,523.473936114897 M280.9157248316791,523.473936114897 L275.11462912186664,521.2574748762879 M275.11462912186664,521.2574748762879 L270.4034408042769,518.3031029310453 M270.4034408042769,518.3031029310453 L267.05594671949746,514.7826992294176 M267.05594671949746,514.7826992294176 L265.2665026780835,510.90102364127694 M265.2665026780835,510.90102364127694 L265.1388156453463,506.8837607447663 M265.1388156453463,506.8837607447663 L266.67999625220125,502.9643793072276 M266.67999625220125,502.9643793072276 L269.80018795171276,499.3705815212865 M269.80018795171276,499.3705815212865 L274.3178370882349,496.3110746805456 M274.3178370882349,496.3110746805456 L279.97036411731017,493.9634849202586 M279.97036411731017,493.9634849202586 L286.42935846770973,492.4640672170049 M286.42935846770973,492.4640672170049 L293.31967988608244,491.89982804531434 M293.31967988608244,491.89982804531434 L300.24121526852457,492.30351062406885 M300.24121526852457,492.30351062406885 L306.79201078655365,493.6516873549285 M306.79201078655365,493.6516873549285 L312.591615930412,495.86613238037074 M312.591615930412,495.86613238037074 L317.303110374907,498.81831957889494 M317.303110374907,498.81831957889494 L320.6526470205137,502.3368648116067 M320.6526470205137,502.3368648116067 L322.44538948062564,506.21743804542115 M322.44538948062564,506.21743804542115 L322.5768702167907,510.2346157664998 M322.5768702167907,510.2346157664998 L321.03911659796904,514.1549414284419 M321.03911659796904,514.1549414284419 L317.92121550406335,517.7504940524049 M317.92121550406335,517.7504940524049 L313.40416501866014,520.8121643327684 M313.40416501866014,520.8121643327684 L307.7504312770393,523.1618378090205 M307.7504312770393,523.1618378090205 L301.2886852510319,524.6627793057994 M590.3098035892056,566.4258085295801 L590.3403059854892,539.4850137066865 M590.3403059854892,539.4850137066865 L594.6420669450251,542.6513406313578 M594.6420669450251,542.6513406313578 L597.5087654683023,546.3197379507478 M597.5087654683023,546.3197379507478 L598.7735668807293,550.2771416216499 M598.7735668807293,550.2771416216499 L598.36268301292,554.2936427370139 M598.36268301292,554.2936427370139 L596.2996512492566,558.1357825933572 M596.2996512492566,558.1357825933572 L592.7041165946162,561.5801733408802 M592.7041165946162,561.5801733408802 L587.7848714879951,564.4264638284739 M587.7848714879951,564.4264638284739 L581.8278034593508,566.5090502468558 M581.8278034593508,566.5090502468558 L575.1792824684705,567.7067424170223 M575.1792824684705,567.7067424170223 L568.2259466326634,567.9498179324867 M568.2259466326634,567.9498179324867 L561.3722420562258,567.2241381238621 M561.3722420562258,567.2241381238621 L555.0167610640975,565.5719311256586 M555.0167610640975,565.5719311256586 L549.529096177625,563.0893679658657 M549.529096177625,563.0893679658657 L545.2282422973664,559.9209052375197 M545.2282422973664,559.9209052375197 L542.3640654391916,556.2508613997926 M542.3640654391916,556.2508613997926 L541.1028225880408,552.2926776967315 M541.1028225880408,552.2926776967315 L541.5174867002801,548.2764417286317 M541.5174867002801,548.2764417286317 L543.5836543726953,544.4355514571691 M543.5836543726953,544.4355514571691 L547.1809622130099,540.9931084707741 M547.1809622130099,540.9931084707741 L552.1002115559672,538.1490177077161 M552.1002115559672,538.1490177077161 L558.0555139010236,536.0683790452292 M558.0555139010236,536.0683790452292 L564.7009037959218,534.8719364630392 M564.7009037959218,534.8719364630392 L571.6504604082551,534.6291260923285 M571.6504604082551,534.6291260923285 L578.5006034188647,535.3540258720157 M578.5006034188647,535.3540258720157 L584.8535564042415,537.0045863502387 M584.8535564042415,537.0045863502387 L590.3403059854892,539.4850137066865 M692.841942600754,595.209631584985 L562.6462632793042,316.66060056019285 M562.6462632793042,316.66060056019285 L562.6496166695872,312.94244781470303 M577.0927752048395,330.7030583530565 L562.6496166695872,312.94244781470303 M577.1409132794239,283.55822943980206 L577.0927752048395,330.7030583530565 M562.7157779391682,239.58453674907437 L577.1409132794239,283.55822943980206 M562.7157779391682,239.58453674907437 L562.7434479318586,208.90476177168836 M692.841942600754,595.209631584985 L693.0557249012898,487.204750575563 M562.6462632793042,316.66060056019285 L522.3648611825411,339.86673182358334 M522.4262991629371,232.09005807162117 L522.3648611825411,339.86673182358334 M543.0860739164448,263.9935426860466 L562.7157779391682,239.58453674907437 M543.051174467159,311.1306900482176 L543.0860739164448,263.9935426860466 M562.6496166695872,312.94244781470303 L543.051174467159,311.1306900482176 M551.471271634141,383.54343142856044 L510.7053393503626,360.078649163813 M510.7053393503626,360.078649163813 L510.7691825399918,225.39520687497034 M522.3648611825411,339.86673182358334 L551.4930819917487,356.62540302596074 M551.471271634141,383.54343142856044 L551.4930819917487,356.62540302596074 M455.07041304234684,368.6652410549689 L455.0724841525722,233.97217366984663 M510.7053393503626,360.078649163813 L455.07041304234684,368.6652410549689 M440.15396357627714,400.7324032579185 L440.13946265217373,266.0034142792624 M455.07041304234684,368.6652410549689 L440.15396357627714,400.7324032579185 M440.15396357627714,400.7324032579185 L480.91991812394144,424.22877646821956 M480.91991812394144,424.22877646821956 L480.9260735808935,397.30166285840744 M480.9260735808935,397.30166285840744 L451.797834681821,380.5204229714008 M451.797834681821,380.5204229714008 L451.7965834751444,272.7072876080466 M451.797834681821,380.5204229714008 L320.49247055607543,456.16549381996936 M320.3743476452008,348.2846429309937 L320.49247055607543,456.16549381996936 M349.643702998413,499.9327543814214 L308.8778051418206,476.3775427730224 M308.8778051418206,476.3775427730224 L308.7172471266331,341.563965759139 M320.49247055607543,456.16549381996936 L349.6206729765792,472.98876810294547 M349.643702998413,499.9327543814214 L349.6206729765792,472.98876810294547 M253.10704241395234,484.99722507608226 L252.8844101593223,350.17402267821143 M308.8778051418206,476.3775427730224 L253.10704241395234,484.99722507608226 M238.0544973965743,517.1879919756867 L237.81499005734855,382.32886706520435 M253.10704241395234,484.99722507608226 L238.0544973965743,517.1879919756867 M238.0544973965743,517.1879919756867 L278.82031166258116,540.7749773865485 M278.82031166258116,540.7749773865485 L278.7815057887967,513.8219057934066 M278.7815057887967,513.8219057934066 L249.65336093923497,496.9759321557839 M249.65336093923497,496.9759321557839 L249.47206443077542,389.0586186426741 M249.65336093923497,496.9759321557839 L209.130970423319,520.3208969402713 M209.130970423319,520.3208969402713 L209.07990254778292,494.97434152177243 M209.01901731235031,464.75512880027003 L208.91349819142147,412.38274756730567 M209.130970423319,520.3208969402713 L692.841942600754,595.209631584985 M546.3174787830094,201.73696769837403 L579.3239504533277,204.84272205204374 M603.6771064576259,234.65536010823092 L546.3174787830094,201.73696769837403 M511.02435315135756,292.7167280475329 L511.0468053440975,245.58681209612502 M546.245230826924,295.98086924387076 L511.02435315135756,292.7167280475329 M579.2719634120581,254.90825076267816 L546.245230826924,295.98086924387076 M511.0468053440975,245.58681209612502 L546.3174787830094,201.73696769837403 M603.5602880558318,328.92514294767517 L546.245230826924,295.98086924387076 M628.7273880459612,359.83592624663925 L627.5792675280431,359.7304895183421 M627.5792675280431,359.7304895183421 L577.0927752048395,330.7030583530565 M543.051174467159,311.1306900482176 L511.02435315135756,292.7167280475329 M627.5792675280431,359.7304895183421 L627.6470553642095,312.57427730592985 M627.6470553642095,312.57427730592985 L628.7978464691569,311.1425872157499 M543.0860739164448,263.9935426860466 L511.0468053440975,245.58681209612502 M627.6470553642095,312.57427730592985 L577.1409132794239,283.55822943980206 M536.6023183066416,415.62638590185645 L551.471271634141,383.54343142856044 M480.91991812394144,424.22877646821956 L536.6023183066416,415.62638590185645 M278.82031166258116,540.7749773865485 L334.63877311179505,532.1394113900815 M334.63877311179505,532.1394113900815 L349.643702998413,499.9327543814214 M555.0382668958991,583.5461997953576 L610.8567300262486,574.898441576053 M514.136117250556,559.9259169411782 L555.0382668958991,583.5461997953576 M610.8567300262486,574.898441576053 L625.7253258480931,542.6463317833945 M529.0524734847804,527.6897276886943 L514.136117250556,559.9259169411782 M625.7253258480931,542.6463317833945 L584.8232375176434,519.0578900122138 M584.8232375176434,519.0578900122138 L529.0524734847804,527.6897276886943 M334.6123922717003,505.1882597496167 L278.7815057887967,513.8219057934066 M349.6206729765792,472.98876810294547 L334.6123922717003,505.1882597496167 M536.6208382909315,388.70119222858364 L480.9260735808935,397.30166285840744 M551.4930819917487,356.62540302596074 L536.6208382909315,388.70119222858364 M625.7637178776844,515.692844202629 L610.8918319210289,547.9377886405655 M584.8525159287456,492.1096478403316 L625.7637178776844,515.692844202629 M610.8918319210289,547.9377886405655 L555.0609437558685,556.5836269116949 M529.0693480892392,500.7395655639054 L584.8525159287456,492.1096478403316 M555.0609437558685,556.5836269116949 L514.1496804510878,532.9685894569376 M514.1496804510878,532.9685894569376 L529.0693480892392,500.7395655639054 M536.6023183066416,415.62638590185645 L536.6208382909315,388.70119222858364 M334.63877311179505,532.1394113900815 L334.6123922717003,505.1882597496167 M610.8567300262486,574.898441576053 L610.8918319210289,547.9377886405655 M555.0382668958991,583.5461997953576 L555.0609437558685,556.5836269116949 M514.136117250556,559.9259169411782 L514.1496804510878,532.9685894569376 M625.7253258480931,542.6463317833945 L625.7637178776844,515.692844202629 M529.0524734847804,527.6897276886943 L529.0693480892392,500.7395655639054 M584.8232375176434,519.0578900122138 L584.8525159287456,492.1096478403316" stroke="black"  stroke-width="4"  fill="red"/></svg>