<svg viewBox="0 0 800 800" xmlns="http://www.w3.org/2000/svg"><path d="M54.679956638329145,572.4993720665132 L54.147337761796564,410.6664779299402 M54.679956638329145,572.4993720665132 L745.4613789172306,679.5813813374577 M54.147337761796564,410.6664779299402 L745.8526622382035,517.6056818304892 M745.4613789172306,679.5813813374577 L745.8526622382035,517.6056818304892 M127.93685585470018,468.253949873812 L143.55305705097982,461.68317431943933 M143.55305705097982,461.68317431943933 L164.0355657045222,457.82463955908383 M164.0355657045222,457.82463955908383 L188.0585359689486,456.9292769774758 M188.0585359689486,456.9292769774758 L222.88592641593752,460.4183320070044 M222.88592641593752,460.4183320070044 L254.84566537014013,468.0989986819323 M254.84566537014013,468.0989986819323 L282.6227009545913,478.99113665550306 M282.6227009545913,478.99113665550306 L299.5114432243021,488.6734586178219 M299.5114432243021,488.6734586178219 L312.1547151845809,499.1368431425295 M312.1547151845809,499.1368431425295 L312.1987468251732,536.9601169994485 M312.1987468251732,536.9601169994485 L299.9056383861978,543.3852255427521 M299.9056383861978,543.3852255427521 L283.53582274424787,547.8112065161276 M283.53582274424787,547.8112065161276 L263.91170609950996,550.0166043035304 M263.91170609950996,550.0166043035304 L234.40397738551331,549.3295881004403 M234.40397738551331,549.3295881004403 L198.39427744566967,543.4096476052774 M198.39427744566967,543.4096476052774 L168.04020345424357,533.9700744775021 M168.04020345424357,533.9700744775021 L145.25867324937502,523.1429208258253 M145.25867324937502,523.1429208258253 L135.86518799479325,517.1147669280039 M135.86518799479325,517.1147669280039 L128.05111867255846,510.82779731801844 M127.93685585470018,468.253949873812 L128.05111867255846,510.82779731801844 M559.4780729988294,281.86137147877287 L559.6194220835969,120.41861866254226 M559.4780729988294,281.86137147877287 L54.679956638329145,572.4993720665132 M559.6194220835969,120.41861866254226 L54.147337761796564,410.6664779299402 M520.0610888611436,210.4449546980527 L519.473279371357,205.14765100325963 M519.473279371357,205.14765100325963 L517.7376563777805,200.8370088834061 M517.7376563777805,200.8370088834061 L514.9548978420464,197.76364230543206 M514.9548978420464,197.76364230543206 L511.2864717135426,196.10641181828822 M511.2864717135426,196.10641181828822 L506.94543822676405,195.96193134014362 M506.94543822676405,195.96193134014362 L502.1840821604593,197.33883769759169 M502.1840821604593,197.33883769759169 L497.27914063099865,200.15736642928493 M497.27914063099865,200.15736642928493 L492.5158539777351,204.25379676624772 M492.5158539777351,204.25379676624772 L488.1712655150902,209.38999434980548 M488.1712655150902,209.38999434980548 L484.4980785570408,215.26731281984453 M484.4980785570408,215.26731281984453 L481.7099509211476,221.54389813161612 M481.7099509211476,221.54389813161612 L479.9690188186321,227.85468686071587 M479.9690188186321,227.85468686071587 L479.37643916785834,233.83266437960475 M479.37643916785834,233.83266437960475 L479.9665337204342,239.13025415234512 M479.9665337204342,239.13025415234512 L481.704811550831,243.4395568253883 M481.704811550831,243.4395568253883 L484.4900283002127,246.5102476772175 M484.4900283002127,246.5102476772175 L488.1601025378292,248.1640902841384 M488.1601025378292,248.1640902841384 L492.50159645270844,248.30527105887208 M492.50159645270844,248.30527105887208 L497.262170151305,246.92584953436395 M497.262170151305,246.92584953436395 L502.1652239297675,244.10621954331117 M502.1652239297675,244.10621954331117 L506.9259499177073,240.0103541446835 M506.9259499177073,240.0103541446835 L511.26793322108307,234.87620509066818 M511.26793322108307,234.87620509066818 L514.93901698421,229.00200901729588 M514.93901698421,229.00200901729588 L517.7260252206314,222.72888045728274 M517.7260252206314,222.72888045728274 L519.4671284852797,216.42107978080733 M519.4671284852797,216.42107978080733 L520.0610888611436,210.4449546980527 M135.20432016432437,431.6811812138972 L134.59424804663882,426.37599049867157 M134.59424804663882,426.37599049867157 L132.82897189883568,422.06290709592724 M132.82897189883568,422.06290709592724 L130.01084671991885,418.9927133477277 M130.01084671991885,418.9927133477277 L126.30344803432337,417.3440561797868 M126.30344803432337,417.3440561797868 L121.92210022444556,417.21305330781246 M121.92210022444556,417.21305330781246 L117.1213770629227,418.6075911174256 M117.1213770629227,418.6075911174256 L112.18034885291485,421.44685635440504 M112.18034885291485,421.44685635440504 L107.38635570401902,425.5659230337521 M107.38635570401902,425.5659230337521 L103.01818405364662,430.7253655741278 M103.01818405364662,430.7253655741278 L99.32996464126063,436.6251537536359 M99.32996464126063,436.6251537536359 L96.53623037719154,442.9221255689772 M96.53623037719154,442.9221255689772 L94.79938908686165,449.2500622240755 M94.79938908686165,449.2500622240755 L94.22040293866638,455.24092585745615 M94.22040293866638,455.24092585745615 L94.83279049025094,460.54639695840405 M94.83279049025094,460.54639695840405 L96.60077379338588,464.8581122121525 M96.60077379338588,464.8581122121525 L99.42133557287366,467.9256333474 M99.42133557287366,467.9256333474 L103.13039278656089,469.57087871788485 M103.13039278656089,469.57087871788485 L107.5122411656393,469.6985364625682 M107.5122411656393,469.6985364625682 L112.3121414606432,468.3014850047935 M112.3121414606432,468.3014850047935 L117.25125406516383,465.461118437723 M117.25125406516383,465.461118437723 L122.04267771981608,461.3426150525549 M122.04267771981608,461.3426150525549 L126.40817242348413,456.18526638524423 M126.40817242348413,456.18526638524423 L130.094271507003,450.28862450258856 M130.094271507003,450.28862450258856 L132.88692773939908,443.9951063759779 M132.88692773939908,443.9951063759779 L134.62392957204452,437.670186581573 M134.62392957204452,437.670186581573 L135.20432016432437,431.6811812138972 M745.4613789172306,679.5813813374577 L559.4780729988294,281.86137147877287 M523.6422611185587,423.34320222305723 L524.6134026226471,419.37911796462834 M524.6134026226471,419.37911796462834 L523.9106394654852,415.39611428387866 M523.9106394654852,415.39611428387866 L521.5751193028134,411.6256432596736 M521.5751193028134,411.6256432596736 L517.7428320723932,408.2867013296127 M517.7428320723932,408.2867013296127 L512.636617635374,405.5731675738327 M512.636617635374,405.5731675738327 L506.55319482777367,403.64256629073657 M506.55319482777367,403.64256629073657 L499.8459511730517,402.60693134656117 M499.8459511730517,402.60693134656117 L492.90441043754237,402.52635274864974 M492.90441043754237,402.52635274864974 L486.131653738628,403.40551437455684 M486.131653738628,403.40551437455684 L479.92100121864,405.1934051142668 M479.92100121864,405.1934051142668 L474.6331971649346,407.786254069124 M474.6331971649346,407.786254069124 L470.5755043763837,411.03357060898674 M470.5755043763837,411.03357060898674 L467.98384277026844,414.7468038621943 M467.98384277026844,414.7468038621943 L467.00905614513204,418.71028252649637 M467.00905614513204,418.71028252649637 L467.7081130491108,422.69372435228627 M467.7081130491108,422.69372435228627 L470.0406961038751,426.46557885271784 M470.0406961038751,426.46557885271784 L473.87150637103315,429.80652538825353 M473.87150637103315,429.80652538825353 L478.9780325200874,432.5222313157019 M478.9780325200874,432.5222313157019 L485.06347448599894,434.45468037948575 M485.06347448599894,434.45468037948575 L491.77398922196153,435.4914081458982 M491.77398922196153,435.4914081458982 L498.7193183407384,435.57207142482423 M498.7193183407384,435.57207142482423 L505.49550025328523,434.6919709995129 M505.49550025328523,434.6919709995129 L511.7084258646821,432.90234191615286 M511.7084258646821,432.90234191615286 L516.9968301409453,430.3073355789565 M516.9968301409453,430.3073355789565 L521.053325391228,427.0579505094181 M521.053325391228,427.0579505094181 L523.6422611185587,423.34320222305723 M286.4664250273785,519.3944147127975 L280.0088671646946,520.8941658140398 M280.0088671646946,520.8941658140398 L274.3575980020243,523.2422775316118 M274.3575980020243,523.2422775316118 L269.8409550519239,526.3024645547869 M269.8409550519239,526.3024645547869 L266.72145936493064,529.8970612177054 M266.72145936493064,529.8970612177054 L265.1806240550384,533.8173137991698 M265.1806240550384,533.8173137991698 L265.30828547246244,537.8354694782506 M265.30828547246244,537.8354694782506 L267.0973343338312,541.7180076039523 M267.0973343338312,541.7180076039523 L270.44408651328075,545.239193470147 M270.44408651328075,545.239193470147 L275.15422923633935,548.194221748595 M275.15422923633935,548.194221748595 L280.95403642019517,550.4111753466084 M280.95403642019517,550.4111753466084 L287.5063113442974,551.7610433258872 M287.5063113442974,551.7610433258872 L294.43002833512173,552.1652531331137 M294.43002833512173,552.1652531331137 L301.3224672207642,551.6002826094356 M301.3224672207642,551.6002826094356 L307.78277553607484,550.0990077141419 M307.78277553607484,550.0990077141419 L313.43525087298013,547.7488122805039 M313.43525087298013,547.7488122805039 L317.9512954380773,544.6864618186867 M317.9512954380773,544.6864618186867 L321.0685015343143,541.0901103179622 M321.0685015343143,541.0901103179622 L322.60591138041553,537.1689135114964 M322.60591138041553,537.1689135114964 L322.4744579474405,533.1508430071233 M322.4744579474405,533.1508430071233 L320.6821121337945,529.2694072366832 M320.6821121337945,529.2694072366832 L317.3333183014392,525.7500798398897 M317.3333183014392,525.7500798398897 L312.62286959008736,522.7972363071771 M312.62286959008736,522.7972363071771 L306.82455231193273,520.5822989213684 M306.82455231193273,520.5822989213684 L300.2752120034909,519.2338224188609 M300.2752120034909,519.2338224188609 L293.35521471614186,518.8300500773261 M293.35521471614186,518.8300500773261 L286.4664250273785,519.3944147127975 M549.5076629172942,590.035401191492 L554.9941058010647,592.5185150570487 M554.9941058010647,592.5185150570487 L561.3481719041442,594.171088538439 M561.3481719041442,594.171088538439 L568.2003510338453,594.896929306909 M568.2003510338453,594.896929306909 L575.15213964873,594.6537998763647 M575.15213964873,594.6537998763647 L581.7991817117044,593.455842047155 M581.7991817117044,593.455842047155 L587.7549251705753,591.3727936670396 M587.7549251705753,591.3727936670396 L592.6730771153494,588.5258717604906 M592.6730771153494,588.5258717604906 L596.2678135461988,585.0807168323572 M596.2678135461988,585.0807168323572 L598.3303883429797,581.237724447081 M598.3303883429797,581.237724447081 L598.7411829425251,577.2203319980515 M598.7411829425251,577.2203319980515 L597.4766650004775,573.2620499924265 M597.4766650004775,573.2620499924265 L594.6106060815197,569.5928383797752 M594.6106060815197,569.5928383797752 L590.3098035892056,566.4258085295801 M590.3098035892056,566.4258085295801 L584.8242756025359,563.9448304661012 M584.8242756025359,563.9448304661012 L578.4727363808195,562.2939035037139 M578.4727363808195,562.2939035037139 L571.6241172321095,561.5688427637185 M571.6241172321095,561.5688427637185 L564.676106159476,561.8117070496664 M564.676106159476,561.8117070496664 L558.0321938000276,563.0084152916413 M558.0321938000276,563.0084152916413 L552.0782152400448,565.0895159170176 M552.0782152400448,565.0895159170176 L547.1600590617613,567.9342381003364 M547.1600590617613,567.9342381003364 L543.5635502349431,571.3774452684984 M543.5635502349431,571.3774452684984 L541.4978409250781,575.2191880696353 M541.4978409250781,575.2191880696353 L541.0832677630067,579.2363153715578 M541.0832677630067,579.2363153715578 L542.3442287266098,583.195377408879 M542.3442287266098,583.195377408879 L545.2077671016223,586.8662355388901 M545.2077671016223,586.8662355388901 L549.5076629172942,590.035401191492 M745.8526622382035,517.6056818304892 L559.6194220835969,120.41861866254226 M145.67258790097858,405.07583763725967 L698.9194344207718,490.581125020601 M698.9194344207718,490.581125020601 L550.0498161946232,172.69732424313656 M550.0498161946232,172.69732424313656 L145.67258790097858,405.07583763725967 M628.7899379114867,316.6081378541454 L625.4924701257886,301.2212082708629 M625.4924701257886,301.2212082708629 L621.0967907059926,284.8614805903107 M621.0967907059926,284.8614805903107 L615.8243983945366,268.3523658087004 M615.8243983945366,268.3523658087004 L607.8943965987005,247.5388801559763 M607.8943965987005,247.5388801559763 L598.2169023832737,227.23439253245752 M598.2169023832737,227.23439253245752 L590.0609756691639,214.5809691277775 M590.0609756691639,214.5809691277775 L583.941374878087,208.83468652153573 M583.941374878087,208.83468652153573 L581.4185380393066,208.03111764138202 M581.4185380393066,208.03111764138202 L579.3200117302364,208.63586451972515 M579.2758991411156,251.11799166507978 L579.3200117302364,208.63586451972515 M579.2758991411156,251.11799166507978 L583.459987845633,269.039258737197 M583.459987845633,269.039258737197 L588.9497018577389,287.7907668853321 M588.9497018577389,287.7907668853321 L595.3907955252274,306.1611526307845 M595.3907955252274,306.1611526307845 L604.7343749263505,328.02188027293295 M604.7343749263505,328.02188027293295 L613.3160099101949,343.6205267307379 M613.3160099101949,343.6205267307379 L620.7824668066343,352.97537373829067 M620.7824668066343,352.97537373829067 L625.3276471731705,355.61103289401854 M625.3276471731705,355.61103289401854 L628.7352909791474,354.37426265103204 M628.7352909791474,354.37426265103204 L628.7899379114867,316.6081378541454 M312.1987468251732,536.9601169994485 L314.9646732161345,526.1450232982147 M314.9646732161345,526.1450232982147 L315.89473170314545,515.9074721502573 M315.89473170314545,515.9074721502573 L314.9425438172693,506.75375380466494 M314.9425438172693,506.75375380466494 L312.1547151845809,499.1368431425295 M128.05111867255846,510.82779731801844 L133.0318582433805,515.980226258778 M133.0318582433805,515.980226258778 L139.43339322889057,518.8364605694202 M139.43339322889057,518.8364605694202 L146.93300525230345,519.2534945614727 M146.93300525230345,519.2534945614727 L155.1529525378964,517.2111344601603 M275.6500389680663,492.6397961687038 L274.8615431492177,497.9406505447183 M274.8615431492177,497.9406505447183 L272.49244108466775,502.9130829039746 M272.49244108466775,502.9130829039746 L268.5793814414402,507.48070675276267 M268.5793814414402,507.48070675276267 L263.1827585191454,511.57337770045376 M263.1827585191454,511.57337770045376 L253.8263699935199,516.1840630698787 M253.8263699935199,516.1840630698787 L240.64855767843486,520.0742068046253 M240.64855767843486,520.0742068046253 L219.48720294687834,522.9107420131927 M219.48720294687834,522.9107420131927 L192.28369811873577,522.7114268777342 M192.28369811873577,522.7114268777342 L173.74564934365586,520.6747449337261 M173.74564934365586,520.6747449337261 L155.1529525378964,517.2111344601603 M154.9401511297982,430.71705623184886 L190.93680892473864,436.43711565857353 M190.93680892473864,436.43711565857353 L221.50512049949924,445.76175020626664 M221.50512049949924,445.76175020626664 L246.29932364743976,457.5541742154708 M246.29932364743976,457.5541742154708 L261.9526897039577,468.7665404834606 M261.9526897039577,468.7665404834606 L270.01587466591474,477.5392037882643 M270.01587466591474,477.5392037882643 L273.79049524499266,484.1134507888814 M273.79049524499266,484.1134507888814 L275.1810878132833,488.4295762853864 M275.1810878132833,488.4295762853864 L275.6500389680663,492.6397961687038 M154.9401511297982,430.71705623184886 L146.7279165555566,438.1329015292455 M146.7279165555566,438.1329015292455 L139.2477825865983,447.1747092828922 M139.2477825865983,447.1747092828922 L132.87700296353194,457.3867109601023 M132.87700296353194,457.3867109601023 L127.93685585470018,468.253949873812 M154.9401511297982,430.71705623184886 L154.99125081934937,451.4867521891137 M154.99125081934937,451.4867521891137 L150.71812451237568,456.1695237363741 M150.71812451237568,456.1695237363741 L146.99840645391168,461.5983738607292 M146.99840645391168,461.5983738607292 L144.02720534017374,467.4885542515123 M144.02720534017374,467.4885542515123 L141.96041636915123,473.5310307526645 M141.96041636915123,473.5310307526645 L140.9063874848054,479.40881455798274 M140.9063874848054,479.40881455798274 L140.92031621807428,484.81363255809987 M140.92031621807428,484.81363255809987 L142.00133160862498,489.46206109574416 M142.00133160862498,489.46206109574416 L144.09256926280534,493.11049557526593 M144.09256926280534,493.11049557526593 L147.08422862726928,495.56780642331364 M147.08422862726928,495.56780642331364 L150.81928795772023,496.7054260356957 M150.81928795772023,496.7054260356957 L155.10190824609748,496.46395516552366 M155.10190824609748,496.46395516552366 L155.1529525378964,517.2111344601603 M566.619706067319,237.1752474451618 L520.0610888611436,210.4449546980527 M566.619706067319,237.1752474451618 L566.1761273258844,232.5141431936604 M566.1761273258844,232.5141431936604 L564.8556791237619,228.5737601762056 M564.8556791237619,228.5737601762056 L562.7164011831989,225.52786103474796 M562.7164011831989,225.52786103474796 L559.8524693363065,223.51080304513295 M559.8524693363065,223.51080304513295 L556.3899570031002,222.61170091006403 M556.3899570031002,222.61170091006403 L552.481458274664,222.87035875232044 M552.481458274664,222.87035875232044 L550.012719742768,219.2339974725935 M549.979543862388,260.8524010428681 L545.3914264738489,265.5332408915191 M545.3914264738489,265.5332408915191 L540.5150998702192,269.04703913490323 M540.5150998702192,269.04703913490323 L535.6350758660781,271.18860848688723 M535.6350758660781,271.18860848688723 L531.0361229423374,271.832781931052 M531.0361229423374,271.832781931052 L526.9867096801777,270.9416974755932 M526.9867096801777,270.9416974755932 L523.7233170085119,268.5670838832674 M523.7233170085119,268.5670838832674 L521.4366710573843,264.8472892230858 M521.4366710573843,264.8472892230858 L520.2604681118505,259.9993094328017 M520.2604681118505,259.9993094328017 L520.2636126857798,254.30612251475588 M520.2636126857798,254.30612251475588 L521.4460837852947,248.1001763482851 M521.4460837852947,248.1001763482851 L523.7388986570305,241.7440106055675 M523.7388986570305,241.7440106055675 L527.0081848853896,235.60897600277434 M527.0081848853896,235.60897600277434 L531.0629102369264,230.0535217285123 M531.0629102369264,230.0535217285123 L535.6661668668671,225.40222012683626 M535.6661668668671,225.40222012683626 L540.5489903487601,221.9267266642326 M540.5489903487601,221.9267266642326 L545.4261327213977,219.82988343289907 M545.4261327213977,219.82988343289907 L550.012719742768,219.2339974725935 M549.979543862388,260.8524010428681 L552.4447592938878,267.7622225337217 M552.4447592938878,267.7622225337217 L556.3551949968685,263.52356067269614 M556.3551949968685,263.52356067269614 L559.8216192409425,258.63961564692283 M559.8216192409425,258.63961564692283 L562.6913333176075,253.32552401911764 M562.6913333176075,253.32552401911764 L564.8379877339883,247.81530452099537 M564.8379877339883,247.81530452099537 L566.1669750815041,242.35165759779107 M566.1669750815041,242.35165759779107 L566.619706067319,237.1752474451618 M155.10190824609748,496.46395516552366 L145.8966001992339,493.4014750041712 M145.8966001992339,493.4014750041712 L150.2561402046312,492.8612055885314 M150.2561402046312,492.8612055885314 L154.88588759741634,490.9752935553908 M154.88588759741634,490.9752935553908 L159.54472298963367,487.84214615850937 M159.54472298963367,487.84214615850937 L163.99008717546576,483.62503665052134 M163.99008717546576,483.62503665052134 L167.9905640673464,478.5435990641456 M167.9905640673464,478.5435990641456 L171.3378992342006,472.862421364584 M171.3378992342006,472.862421364584 L173.8578512222635,466.877253294697 M173.8578512222635,466.877253294697 L175.41919509386634,460.8996803906036 M175.41919509386634,460.8996803906036 L175.94055237237328,455.24092585745615 M175.94055237237328,455.24092585745615 L135.20432016432437,431.6811812138972 M175.94055237237328,455.24092585745615 L175.39466212173812,450.1956855306874 M175.39466212173812,450.1956855306874 L173.80979216552535,446.0268068464504 M173.80979216552535,446.0268068464504 L171.26833111665877,442.9515696958427 M171.26833111665877,442.9515696958427 L167.9025090636667,441.1303781235998 M167.9025090636667,441.1303781235998 L163.88753903406052,440.658389115176 M163.88753903406052,440.658389115176 L159.43256106151,441.56042360362045 M159.43256106151,441.56042360362045 L154.76971797469628,443.7896881644956 M154.76971797469628,443.7896881644956 L150.14205261860656,447.23016763389865 M150.14205261860656,447.23016763389865 L145.79084315386245,451.70261065062397 M145.79084315386245,451.70261065062397 L154.99125081934937,451.4867521891137 M523.6422611185587,423.34320222305723 L523.6578946247082,396.43424149790064 M523.6578946247082,396.43424149790064 L524.6292506352049,392.4710413372402 M524.6292506352049,392.4710413372402 L523.9263304760755,388.48892608992105 M523.9263304760755,388.48892608992105 L521.5902910656293,384.7192961996784 M521.5902910656293,384.7192961996784 L517.7571526312227,381.3810992231741 M517.7571526312227,381.3810992231741 L512.6498045578309,378.66817094596666 M512.6498045578309,378.66817094596666 L506.56503155047113,376.73800047636576 M506.56503155047113,376.73800047636576 L499.8562995275959,375.70259664530056 M499.8562995275959,375.70259664530056 L492.91321863044993,375.6220360297025 M492.91321863044993,375.6220360297025 L486.1389593387338,376.50100146018394 M486.1389593387338,376.50100146018394 L479.9269289913035,378.2884932281975 M479.9269289913035,378.2884932281975 L474.63795186318134,380.88076362485555 M474.63795186318134,380.88076362485555 L470.57935890653437,384.12735564074853 M470.57935890653437,384.12735564074853 L467.9871223984139,387.83976051194793 M467.9871223984139,387.83976051194793 L467.0121196504849,391.80235507882827 M467.0121196504849,391.80235507882827 L467.71133191060864,395.7849084703249 M467.71133191060864,395.7849084703249 L470.04443291075853,399.55592183448096 M470.04443291075853,399.55592183448096 L473.87609372533313,402.8961234148472 M473.87609372533313,402.8961234148472 L478.9837536482429,405.61122386191596 M478.9837536482429,405.61122386191596 L485.0705467117765,407.54324210935334 M485.0705467117765,407.54324210935334 L491.78255127000506,408.5797387610345 M491.78255127000506,408.5797387610345 L498.7294222309343,408.6603840582589 M498.7294222309343,408.6603840582589 L505.50710825542075,407.7804798301709 M505.50710825542075,407.7804798301709 L511.7214127030546,405.99124971910175 M511.7214127030546,405.99124971910175 L517.0109903210798,403.3968219433145 M517.0109903210798,403.3968219433145 L521.0683852069092,400.14816139978774 M521.0683852069092,400.14816139978774 L523.6578946247082,396.43424149790064 M286.4664250273785,519.3944147127975 L286.42935846770973,492.4640672170049 M286.42935846770973,492.4640672170049 L279.97036411731017,493.9634849202586 M279.97036411731017,493.9634849202586 L274.3178370882349,496.3110746805456 M274.3178370882349,496.3110746805456 L269.80018795171276,499.3705815212865 M269.80018795171276,499.3705815212865 L266.67999625220125,502.9643793072276 M266.67999625220125,502.9643793072276 L265.1388156453463,506.8837607447663 M265.1388156453463,506.8837607447663 L265.2665026780835,510.90102364127694 M265.2665026780835,510.90102364127694 L267.05594671949746,514.7826992294176 M267.05594671949746,514.7826992294176 L270.4034408042769,518.3031029310453 M270.4034408042769,518.3031029310453 L275.11462912186664,521.2574748762879 M275.11462912186664,521.2574748762879 L280.9157248316791,523.473936114897 M280.9157248316791,523.473936114897 L287.4694562710329,524.8235043219854 M287.4694562710329,524.8235043219854 L294.39471301173796,525.2276243668424 M294.39471301173796,525.2276243668424 L301.2886852510319,524.6627793057994 M301.2886852510319,524.6627793057994 L307.7504312770393,523.1618378090205 M307.7504312770393,523.1618378090205 L313.40416501866014,520.8121643327684 M313.40416501866014,520.8121643327684 L317.92121550406335,517.7504940524049 M317.92121550406335,517.7504940524049 L321.03911659796904,514.1549414284419 M321.03911659796904,514.1549414284419 L322.5768702167907,510.2346157664998 M322.5768702167907,510.2346157664998 L322.44538948062564,506.21743804542115 M322.44538948062564,506.21743804542115 L320.6526470205137,502.3368648116067 M320.6526470205137,502.3368648116067 L317.303110374907,498.81831957889494 M317.303110374907,498.81831957889494 L312.591615930412,495.86613238037074 M312.591615930412,495.86613238037074 L306.79201078655365,493.6516873549285 M306.79201078655365,493.6516873549285 L300.24121526852457,492.30351062406885 M300.24121526852457,492.30351062406885 L293.31967988608244,491.89982804531434 M293.31967988608244,491.89982804531434 L286.42935846770973,492.4640672170049 M549.5076629172942,590.035401191492 L549.529096177625,563.0893679658657 M549.529096177625,563.0893679658657 L555.0167610640975,565.5719311256586 M555.0167610640975,565.5719311256586 L561.3722420562258,567.2241381238621 M561.3722420562258,567.2241381238621 L568.2259466326634,567.9498179324867 M568.2259466326634,567.9498179324867 L575.1792824684705,567.7067424170223 M575.1792824684705,567.7067424170223 L581.8278034593508,566.5090502468558 M581.8278034593508,566.5090502468558 L587.7848714879951,564.4264638284739 M587.7848714879951,564.4264638284739 L592.7041165946162,561.5801733408802 M592.7041165946162,561.5801733408802 L596.2996512492566,558.1357825933572 M596.2996512492566,558.1357825933572 L598.36268301292,554.2936427370139 M598.36268301292,554.2936427370139 L598.7735668807293,550.2771416216499 M598.7735668807293,550.2771416216499 L597.5087654683023,546.3197379507478 M597.5087654683023,546.3197379507478 L594.6420669450251,542.6513406313578 M594.6420669450251,542.6513406313578 L590.3403059854892,539.4850137066865 M590.3403059854892,539.4850137066865 L584.8535564042415,537.0045863502387 M584.8535564042415,537.0045863502387 L578.5006034188647,535.3540258720157 M578.5006034188647,535.3540258720157 L571.6504604082551,534.6291260923285 M571.6504604082551,534.6291260923285 L564.7009037959218,534.8719364630392 M564.7009037959218,534.8719364630392 L558.0555139010236,536.0683790452292 M558.0555139010236,536.0683790452292 L552.1002115559672,538.1490177077161 M552.1002115559672,538.1490177077161 L547.1809622130099,540.9931084707741 M547.1809622130099,540.9931084707741 L543.5836543726953,544.4355514571691 M543.5836543726953,544.4355514571691 L541.5174867002801,548.2764417286317 M541.5174867002801,548.2764417286317 L541.1028225880408,552.2926776967315 M541.1028225880408,552.2926776967315 L542.3640654391916,556.2508613997926 M542.3640654391916,556.2508613997926 L545.2282422973664,559.9209052375197 M545.2282422973664,559.9209052375197 L549.529096177625,563.0893679658657 M146.01468325320923,539.9603518418669 L698.6457192716942,625.5609064766146 M698.6457192716942,625.5609064766146 L698.9194344207718,490.581125020601 M145.79084315386245,451.70261065062397 L145.67258790097858,405.07583763725967 M146.01468325320923,539.9603518418669 L145.8966001992339,493.4014750041712 M698.6457192716942,625.5609064766146 L549.9425012217068,307.3215693519612 M549.9425012217068,307.3215693519612 L549.979543862388,260.8524010428681 M552.4278306757573,288.4700788027434 L552.4447592938878,267.7622225337217 M552.4278306757573,288.4700788027434 L562.0735069602983,308.95018825401553 M562.0735069602983,308.95018825401553 L570.2704526960932,321.8900311090985 M570.2704526960932,321.8900311090985 L576.9249019448381,328.1679579295634 M576.9249019448381,328.1679579295634 L581.1304965326855,328.3702527292663 M581.1304965326855,328.3702527292663 L583.299661186063,325.48015807517845 M583.299661186063,325.48015807517845 L584.3170758810909,321.6611347765001 M584.3170758810909,321.6611347765001 L584.6932547791158,318.3608921648623 M584.6932547791158,318.3608921648623 L584.8220260948701,314.49439327920254 M584.8220260948701,314.49439327920254 L584.6140138218254,308.62062829019493 M584.6140138218254,308.62062829019493 L583.9813972607619,301.92238122267213 M583.9813972607619,301.92238122267213 L582.9339062320777,294.5028342700979 M582.9339062320777,294.5028342700979 L581.4876754002346,286.4763447631334 M581.4876754002346,286.4763447631334 L578.9785073372984,275.0451531863934 M578.9785073372984,275.0451531863934 L575.442820667502,261.5495746788056 M575.442820667502,261.5495746788056 L569.7635107324754,243.29163937586233 M569.7635107324754,243.29163937586233 L562.4621416425896,223.67372083711172 M562.4621416425896,223.67372083711172 L557.4871470633054,212.21107604488725 M557.4871470633054,212.21107604488725 L552.4984051957775,202.140113441403 M552.481458274664,222.87035875232044 L552.4984051957775,202.140113441403 M550.012719742768,219.2339974725935 L550.0498161946232,172.69732424313656 M549.9425012217068,307.3215693519612 L146.01468325320923,539.9603518418669 M628.7899379114867,316.6081378541454 L626.0160893502975,327.40384149571025 M626.0160893502975,327.40384149571025 L625.0667252657996,337.6253484377179 M625.0667252657996,337.6253484377179 L625.9885123278074,346.76632382842206 M625.9885123278074,346.76632382842206 L628.7352909791474,354.37426265103204 M579.3200117302364,208.63586451972515 L574.4086683841555,203.4684930457146 M574.4086683841555,203.4684930457146 L568.0798436548789,200.58652718409212 M568.0798436548789,200.58652718409212 L560.6518018776906,200.1359070448347 M560.6518018776906,200.1359070448347 L552.4984051957775,202.140113441403 M552.4278306757573,288.4700788027434 L560.5801834569335,281.09624955240986 M560.5801834569335,281.09624955240986 L568.0122068291513,272.1016144094912 M568.0122068291513,272.1016144094912 L574.3503211652629,261.9385357991074 M574.3503211652629,261.9385357991074 L579.2758991411156,251.11799166507978" stroke="black"  stroke-width="4"  fill="red"/></svg>